<?xml version="1.0" standalone="no"?>
<!DOCTYPE svg PUBLIC "-//W3C//DTD SVG 20010904//EN"
 "http://www.w3.org/TR/2001/REC-SVG-20010904/DTD/svg10.dtd">
<svg version="1.0" xmlns="http://www.w3.org/2000/svg"
 width="1211.000000pt" height="1211.000000pt" viewBox="0 0 1211.000000 1211.000000"
 preserveAspectRatio="xMidYMid meet">
<metadata>
Created by potrace 1.11, written by Peter Selinger 2001-2013
</metadata>
<g transform="translate(0.000000,1211.000000) scale(0.100000,-0.100000)"
fill="#000000" stroke="none">
<path d="M5625 9800 c-293 -59 -610 -218 -912 -458 -127 -101 -416 -386 -529
-523 -105 -126 -263 -336 -361 -479 -66 -97 -83 -116 -113 -124 -146 -40
-1520 -503 -1895 -639 -1054 -382 -1601 -634 -1764 -813 -50 -54 -51 -57 -51
-116 0 -58 2 -63 38 -97 76 -73 193 -91 585 -91 325 0 360 5 372 53 10 40 2
69 -25 89 -24 18 -35 18 -215 7 -105 -6 -246 -8 -315 -4 -115 6 -266 28 -278
40 -10 10 42 56 118 104 190 122 607 309 1153 517 413 157 1177 427 1185 419
3 -3 -5 -44 -16 -92 -22 -88 -131 -538 -172 -708 -12 -49 -66 -274 -121 -500
-55 -225 -120 -493 -144 -595 -24 -102 -63 -259 -85 -350 -22 -91 -72 -295
-110 -455 -38 -159 -88 -364 -110 -455 -22 -91 -60 -248 -85 -350 -24 -102
-63 -259 -85 -350 -22 -91 -51 -210 -64 -265 -23 -95 -68 -282 -156 -645 -103
-424 -130 -540 -130 -563 0 -31 39 -67 73 -67 35 0 63 29 76 77 5 21 30 126
56 233 46 190 124 515 225 930 27 113 70 291 95 395 70 289 102 421 156 645
28 113 63 259 79 325 16 66 68 280 115 475 47 195 106 438 130 540 25 102 72
298 106 435 33 138 73 304 89 370 16 66 50 206 75 310 25 105 66 276 91 380
66 274 83 338 92 346 4 4 169 60 367 124 198 64 380 123 404 131 24 8 45 13
46 12 2 -2 -26 -55 -62 -118 -89 -158 -229 -441 -290 -585 -195 -460 -342
-1020 -384 -1468 -13 -143 -7 -452 11 -557 16 -89 17 -79 -24 -235 -58 -226
-78 -359 -83 -565 -6 -206 4 -307 44 -435 65 -207 179 -350 353 -443 301 -162
665 -103 1085 175 159 106 257 184 394 317 646 628 1333 1710 1767 2783 125
309 270 760 320 992 10 44 20 81 24 81 3 0 47 40 97 89 422 411 1415 727 2535
806 1008 71 1789 -125 1971 -494 152 -308 -183 -818 -927 -1413 -484 -387
-1254 -883 -2124 -1368 l-202 -113 -73 21 c-88 26 -229 48 -357 57 -52 3 -96
7 -97 9 -3 3 -5 -2 298 949 39 122 100 314 135 427 36 113 94 297 130 410 36
113 97 303 135 423 38 119 101 315 139 436 39 120 70 229 70 243 0 55 -87 91
-122 51 -9 -10 -62 -162 -118 -338 -55 -176 -119 -374 -140 -440 -21 -66 -82
-257 -135 -425 -92 -290 -148 -466 -306 -962 -38 -120 -101 -318 -140 -440
-39 -123 -79 -251 -91 -286 -11 -35 -25 -65 -32 -66 -6 -2 -65 -13 -131 -26
-157 -30 -302 -78 -451 -149 -158 -76 -274 -153 -377 -251 -104 -98 -147 -172
-147 -251 0 -100 63 -155 191 -166 127 -12 373 40 599 125 58 22 106 39 107
38 1 -1 -26 -92 -62 -201 -35 -110 -134 -423 -220 -695 -86 -272 -186 -587
-221 -699 -83 -257 -84 -262 -51 -295 61 -61 106 -21 157 139 21 66 89 278
150 470 61 193 143 448 181 568 38 119 101 317 140 440 39 122 80 252 91 288
l20 66 87 38 c47 21 214 101 370 178 l284 140 100 -49 c113 -55 279 -162 542
-348 1035 -735 1724 -1048 2565 -1165 294 -41 668 -63 720 -41 54 22 67 80 27
118 -20 19 -40 22 -249 32 -442 21 -790 82 -1174 209 -587 193 -1089 469
-1937 1065 -131 92 -281 192 -333 223 l-94 56 147 82 c383 212 975 570 1311
793 848 561 1432 1087 1674 1507 274 476 127 843 -425 1059 -315 123 -711 181
-1232 180 -789 -1 -1608 -147 -2255 -401 -234 -92 -537 -260 -663 -368 -22
-19 -42 -33 -44 -31 -3 2 0 29 6 59 24 130 35 394 22 547 -20 256 -44 364
-109 504 -49 103 -89 163 -161 240 -111 116 -237 188 -406 231 -87 22 -117 25
-274 24 -127 0 -201 -6 -266 -19z m400 -135 c182 -29 298 -81 404 -180 121
-113 202 -269 244 -470 17 -84 21 -137 21 -340 1 -255 -11 -370 -60 -625 -239
-1221 -1091 -2842 -1958 -3729 -180 -183 -309 -294 -471 -403 -356 -240 -684
-308 -925 -191 -104 50 -214 160 -263 263 -68 143 -82 217 -81 455 0 172 4
233 22 339 12 71 25 133 28 138 3 5 29 -28 56 -74 58 -94 230 -273 274 -284
23 -6 32 -1 56 25 49 54 41 75 -56 154 -90 74 -181 224 -226 375 -27 89 -26
97 47 301 276 778 830 1695 1284 2125 51 49 127 111 169 137 117 75 130 87
130 120 0 36 -39 79 -73 79 -13 0 -51 -17 -86 -38 -305 -184 -702 -671 -1071
-1313 -111 -193 -319 -617 -390 -796 -36 -90 -69 -163 -74 -163 -5 0 -6 65 -2
158 20 455 154 989 382 1526 105 247 370 752 432 825 20 23 490 173 1547 493
182 55 449 136 595 180 146 44 307 93 358 108 109 33 132 50 132 96 0 36 -37
74 -74 74 -34 0 -1160 -337 -1946 -582 -212 -66 -404 -126 -428 -133 l-43 -13
17 26 c29 46 215 294 267 357 471 571 961 906 1434 979 118 19 219 19 328 1z
m1750 -4280 c55 -8 110 -17 123 -20 18 -4 -25 -30 -193 -116 -119 -61 -222
-109 -229 -107 -10 2 -5 32 23 125 29 98 40 123 56 126 44 9 125 6 220 -8z
m-405 -22 c0 -5 -23 -77 -51 -162 l-51 -153 -74 -34 c-106 -48 -302 -118 -419
-149 -129 -34 -294 -45 -314 -21 -12 14 -10 22 13 57 74 111 201 211 378 297
140 68 232 102 391 142 126 33 127 33 127 23z"/>
</g>
</svg>
