<svg xmlns="http://www.w3.org/2000/svg" viewBox="0 0 671.18 1009.81"><defs><style>.cls-1,.cls-2{fill:none;stroke:#1d1e22;stroke-width:13px;}.cls-1{stroke-linecap:round;stroke-linejoin:round;}.cls-2{stroke-miterlimit:10;}</style></defs><title>бокал</title><g id="Шар_2" data-name="Шар 2"><g id="Шар_1-2" data-name="Шар 1"><path class="cls-1" d="M422,726.54A575.38,575.38,0,0,1,335.66,736c-.49,0-1,0-1.46.06l-1.47-.06a572.67,572.67,0,0,1-83.51-9C-187.36,644.36,97.16,57.5,102.63,46.28v0a.65.65,0,0,0,.08-.13h.36c0,21.88,104.15,39.64,232.59,39.64,126.38,0,229.23-17.19,232.51-38.59,6.78,13.91,77.74,162.72,93.44,318.52C677.37,521.9,637.59,685.14,422,726.54Z"/><path class="cls-2" d="M568.25,46.12a6,6,0,0,1-.08,1v0c-1.3,8.49-18.25,16.3-46.09,22.64-42.41,9.68-110.12,16-186.42,16-78.77,0-148.43-6.67-190.48-16.9-26.55-6.42-42.11-14.28-42.11-22.74,0-11.28,27.65-21.45,72-28.69C216.87,10.65,273.4,6.5,335.66,6.5c59.76,0,114.26,3.82,155.45,10.17C538.48,23.91,568.25,34.4,568.25,46.12Z"/><path class="cls-2" d="M522,930.52c0,40.2-84.73,72.79-189.26,72.79s-189.25-32.59-189.25-72.79c0-37.83,75-68.92,171-72.45V911A19.53,19.53,0,0,0,334,930.52a18.65,18.65,0,0,0,18.66-18.66V858.13C447.82,862,522,892.91,522,930.52Z"/><path class="cls-1" d="M85.3,300.25S-18,619.27,294.24,679.93"/><line class="cls-1" x1="103.07" y1="235.1" x2="134.73" y2="129.51"/><path class="cls-1" d="M352.65,736.06v175.8A18.65,18.65,0,0,1,334,930.52,19.53,19.53,0,0,1,314.46,911V736.06Z"/></g></g></svg>