<svg xmlns="http://www.w3.org/2000/svg" viewBox="0 0 821.72 978.31"><defs><style>.cls-1{fill:none;stroke:#000;stroke-linecap:round;stroke-linejoin:round;stroke-width:9px;}</style></defs><title>декантер</title><g id="Шар_2" data-name="Шар 2"><g id="Шар_2-2" data-name="Шар 2"><path class="cls-1" d="M817.22,820.11c0,40-27.7,77-74.82,107.28-47.71,30.66-103.48,46.42-160.2,46.42H239.52c-56.72,0-112.49-15.76-160.2-46.42C32.2,897.1,4.5,860.09,4.5,820.11c0-.91,0-1.81,0-2.72A91.06,91.06,0,0,1,12.66,783s0,0,0,0c8.17-11.39,25-27.65,32.1-32,43.62-26.63,80.9-52.64,111-75.23C212,633.41,243,603.05,243,603.05c87.18-86.75,105-286.34,87-335.33-14.74-40.1-21.49-208.16-21.41-251.34,7.53,4.94,50.28,8.74,101.91,8.74,53.26,0,97.08-4,102.52-9.22.23,44-2.83,212.91-17.65,253.24-18,49-3.91,247.16,83.27,333.91,0,0,31,30.36,87.31,72.69,30,22.59,67.33,48.6,111,75.23,7.1,4.33,23.93,20.59,32.1,32,0,0,0,0,0,0a91.06,91.06,0,0,1,8.12,34.42C817.21,818.3,817.22,819.2,817.22,820.11Z"/><path class="cls-1" d="M174.87,724.12c-18.94,15.23-37,31.66-55.41,47.39-33.77,28.8-35.12,81.09-2.11,110.75l1.67,1.46c19,16,39,26,62.1,34.13"/><path class="cls-1" d="M266.14,646.21C253,659.72,237,669.72,223.85,682.3"/><path class="cls-1" d="M513.26,14.81a1.53,1.53,0,0,1-.57,1.09c-5.41,5.18-49,9.22-101.92,9.22-51.32,0-93.83-3.8-101.31-8.74-.78-.52-1.18-1-1.18-1.57s.41-1.06,1.2-1.58C317,8.29,359.5,4.5,410.77,4.5c52.89,0,96.42,4,101.9,9.21A1.54,1.54,0,0,1,513.26,14.81Z"/></g></g></svg>