<svg xmlns="http://www.w3.org/2000/svg" viewBox="0 0 823.52 1419.12"><defs><style>.cls-1{stroke:#000;stroke-miterlimit:10;stroke-width:2px;}</style></defs><title>підсвічник</title><g id="Шар_2" data-name="Шар 2"><g id="Шар_2-2" data-name="Шар 2"><path class="cls-1" d="M411.76,109.21c-68.16,0-133.54-6.06-179.38-16.63-43.24-10-65.17-22.58-65.17-37.47C167.21,20,293.21,1,411.76,1S656.31,20,656.31,55.11c0,14.89-21.92,27.5-65.14,37.47l-.25,0C545.09,103.17,479.81,109.21,411.76,109.21Zm0-100.43C272.23,8.78,175,33.19,175,55.11c0,3.81,4.26,17.24,59.14,29.89,45.29,10.44,110,16.43,177.63,16.43S544.1,95.44,589.39,85l.25,0c54.64-12.64,58.89-26,58.89-29.84C648.53,33.19,551.29,8.78,411.76,8.78Zm178.54,80h0Z"/><path class="cls-1" d="M625.62,1418.12H197.94a28.65,28.65,0,0,1-13.2-3.24L9.87,1324.21A16.37,16.37,0,0,1,1,1309.64v-73.17a27.94,27.94,0,0,1,17.34-25.88c33.93-13.93,116.89-48,156.8-64.42,29.26-12,54.5-28.6,75-49.32,45.16-45.47,55.85-97.51,56.87-133.16.76-27.94-6.69-56.54-21.55-82.73-30-52.85-26.49-135-18.29-194.69,3.83-27.87,14-55.71,30.24-82.76,33.14-55.19,30.07-157.74,29.21-176.41-15.46-3.5-26.47-10.9-32.74-22-9.56-17-5.11-37.37-2.83-45.16C241.9,331,246.32,260.85,246.85,254.27L229.39,89.2a3.89,3.89,0,0,1,4.74-4.2c45.29,10.44,110,16.43,177.63,16.43S544.1,95.44,589.39,85a4,4,0,0,1,3.78,1.19,3.93,3.93,0,0,1,1,3L576.7,254.27c.53,6.59,5,76.73-44.23,105.65,2.28,7.79,6.72,28.19-2.84,45.14-6.27,11.13-17.29,18.53-32.77,22C496,445.77,493,548.34,526.11,603.51c16.19,27,26.36,54.81,30.24,82.76C564.54,745.93,568,828.13,538,881c-14.84,26.21-22.28,54.82-21.51,82.73,1,35.61,11.64,87.61,56.83,133.16,20.58,20.72,45.84,37.32,75.07,49.32,39.91,16.41,122.88,50.49,156.8,64.41a27.92,27.92,0,0,1,17.31,25.89v73.17a16.32,16.32,0,0,1-8.88,14.58l-174.83,90.66A28.92,28.92,0,0,1,625.62,1418.12ZM237.7,93.77l16.93,160.05a3.85,3.85,0,0,1,0,.76c-.07.73-6,73.93,43,100.07a3.89,3.89,0,0,1,1.81,4.79c-.09.24-8.75,24.06,1.3,41.85,5.5,9.72,15.72,16,30.39,18.79a3.88,3.88,0,0,1,3.17,3.56c.32,4.92,7.46,121.24-30.15,183.87-15.69,26.14-25.52,53-29.2,79.82-8,58.46-11.55,138.84,17.34,189.79,15.57,27.42,23.37,57.43,22.56,86.78-1.05,37.06-12.17,91.15-59.12,138.43-21.27,21.46-47.38,38.63-77.6,51-39.91,16.42-122.88,50.49-156.8,64.42a20.19,20.19,0,0,0-12.52,18.69v73.17a8.6,8.6,0,0,0,4.67,7.66L188.33,1408a21,21,0,0,0,9.61,2.36H625.62a21,21,0,0,0,9.61-2.37l174.84-90.67a8.57,8.57,0,0,0,4.67-7.66v-73.17a20.18,20.18,0,0,0-12.49-18.7c-33.91-13.92-116.89-48-156.8-64.41-30.19-12.39-56.31-29.56-77.63-51-47-47.36-58.07-101.41-59.09-138.43-.8-29.32,7-59.33,22.52-86.78,28.93-50.94,25.42-131.32,17.39-189.79-3.73-26.9-13.56-53.75-29.2-79.82-37.62-62.63-30.51-178.94-30.19-183.87a3.88,3.88,0,0,1,3.17-3.56c14.7-2.76,24.94-9.1,30.44-18.84,10.07-17.85,1.38-41.55,1.29-41.79a3.89,3.89,0,0,1,1.81-4.8c49.08-26.18,43-99.34,43-100.07a3.85,3.85,0,0,1,0-.76L585.86,93.76c-45.5,9.84-108.51,15.45-174.1,15.45S283.19,103.6,237.7,93.77Z"/><path class="cls-1" d="M363.6,912.53a3.93,3.93,0,0,1-3.11-1.54c-68.61-90.44-3.42-304.7-.61-313.78a3.89,3.89,0,1,1,7.43,2.3c-.68,2.18-66.82,219.51-.62,306.78a3.89,3.89,0,0,1-3.09,6.24Z"/><path class="cls-1" d="M465,915.19a3.89,3.89,0,0,1-3.1-6.25c66.2-87.26.06-304.59-.62-306.77a3.89,3.89,0,0,1,7.44-2.3c2.8,9.08,68,223.34-.62,313.78A3.92,3.92,0,0,1,465,915.19Z"/><path class="cls-1" d="M93.41,1367a3.89,3.89,0,0,1-3.89-3.77c-1-33.65,2.86-99.67,2.9-100.34l.1-1.82,234.39-172.78a3.89,3.89,0,1,1,4.62,6.26L100.08,1265.2c-.61,10.86-3.67,67.64-2.78,97.83a3.9,3.9,0,0,1-3.78,4Z"/><path class="cls-1" d="M730.13,1367h0a3.88,3.88,0,0,1-3.86-3.91c.21-35.24.08-64.92-3.5-98-39.15-32.87-81.23-63-121.94-92.24-35.79-25.66-72.81-52.2-108-80.64a3.89,3.89,0,0,1,4.89-6c35,28.3,71.91,54.77,107.61,80.37,41.25,29.58,83.9,60.16,123.62,93.61l1.18,1,.18,1.54c3.79,34.12,3.92,64.4,3.71,100.45A3.89,3.89,0,0,1,730.13,1367Z"/><path class="cls-1" d="M301.72,1418.12a3.89,3.89,0,0,1-3.89-3.89V1310.85l.24-.64,34-93a3.89,3.89,0,0,1,7.31,2.68l-33.76,92.35v102A3.89,3.89,0,0,1,301.72,1418.12Z"/><path class="cls-1" d="M509.84,1418.12a3.89,3.89,0,0,1-3.88-3.89v-102l-33.76-92.35a3.89,3.89,0,0,1,7.3-2.68l34.23,93.65v103.38A3.89,3.89,0,0,1,509.84,1418.12Z"/><path class="cls-1" d="M415.67,75.48c-49.41,0-101.93-11.06-101.93-31.56s52.52-31.56,101.93-31.56S517.6,23.42,517.6,43.92,465.08,75.48,415.67,75.48Zm0-55.34c-58.33,0-94.15,13.85-94.15,23.78S357.34,67.7,415.67,67.7s94.15-13.85,94.15-23.78S474,20.14,415.67,20.14Z"/><path class="cls-1" d="M96.3,1267a3.81,3.81,0,0,1-1.47-.29L40.7,1244.58a3.89,3.89,0,1,1,2.94-7.2l54.13,22.17A3.89,3.89,0,0,1,96.3,1267Z"/><path class="cls-1" d="M730.2,1267a3.89,3.89,0,0,1-1.48-7.49l54.13-22.17a3.89,3.89,0,0,1,2.95,7.2l-54.13,22.17A3.81,3.81,0,0,1,730.2,1267Z"/><path class="cls-1" d="M333.28,346.15a3.9,3.9,0,0,1-1.52-.31c-34.4-14.65-40.54-70.4-40.79-72.77a3.89,3.89,0,1,1,7.74-.8c.06.53,5.92,53.56,36.1,66.41a3.89,3.89,0,0,1-1.53,7.47Z"/><path class="cls-1" d="M491.64,346.15a3.89,3.89,0,0,1-1.53-7.47c30.24-12.87,36-65.88,36.1-66.41a3.89,3.89,0,1,1,7.74.8c-.25,2.37-6.38,58.12-40.79,72.77A3.86,3.86,0,0,1,491.64,346.15Z"/><path class="cls-1" d="M294.84,235.87A3.88,3.88,0,0,1,291,232V198.07a3.89,3.89,0,0,1,7.78,0V232A3.88,3.88,0,0,1,294.84,235.87Z"/><path class="cls-1" d="M530.08,235.87a3.88,3.88,0,0,1-3.89-3.88V198.07a3.89,3.89,0,0,1,7.78,0V232A3.88,3.88,0,0,1,530.08,235.87Z"/></g></g></svg>