<svg xmlns="http://www.w3.org/2000/svg" viewBox="0 0 1546.87 1436.34"><defs><style>.cls-1,.cls-2,.cls-3,.cls-4{fill:none;stroke:#000;}.cls-1,.cls-2,.cls-3{stroke-miterlimit:10;}.cls-1,.cls-2{stroke-width:10px;}.cls-2,.cls-4{stroke-linecap:round;}.cls-3,.cls-4{stroke-width:9px;}.cls-4{stroke-linejoin:round;}</style></defs><title>тортівниця</title><g id="Шар_2" data-name="Шар 2"><g id="Шар_2-2" data-name="Шар 2"><path class="cls-1" d="M861.19,49.63a63.61,63.61,0,0,1,1.4,45.49c0,.13-.09.26-.14.4a75.33,75.33,0,0,1-30.69,39.05,90.33,90.33,0,0,1-30.1,11.92,138.71,138.71,0,0,1-29.6,2.82,139.42,139.42,0,0,1-28.5-2.59,93,93,0,0,1-28.45-10.48,75.23,75.23,0,0,1-33.42-40.68c-.05-.14-.1-.27-.14-.4A63.67,63.67,0,0,1,683,49.61c17.3-41.49,59-45.23,78.6-44.54q10.5.38,21,0C802.18,4.38,843.88,8.12,861.19,49.63Z"/><path class="cls-2" d="M749.44,32.74s26.73,4.72,45.6,0"/><path class="cls-3" d="M831.76,134.57v10.94A26.47,26.47,0,0,1,805.25,172h-61a29.14,29.14,0,0,1-29.16-29.16v-6.62a93,93,0,0,0,28.45,10.48,139.42,139.42,0,0,0,28.5,2.59,138.71,138.71,0,0,0,29.6-2.82A90.33,90.33,0,0,0,831.76,134.57Z"/><path class="cls-3" d="M851.2,172c0,15.13-34.82,27.4-77.77,27.4s-77.76-12.27-77.76-27.4c0-7.31,8.1-13.93,21.32-18.84A29.17,29.17,0,0,0,744.27,172h61a26.53,26.53,0,0,0,25.31-18.59C843.38,158.32,851.2,164.84,851.2,172Z"/><path class="cls-3" d="M1441.65,837.93c-.71,76.13-2.09,103.86-2.09,103.86s-69.61,137.92-508.41,164q-5.5.33-11.1.63c-44.79,2.44-93.35,3.73-146,3.6H772.8c-51.84.12-99.74-1.12-144-3.49q-5.6-.29-11.1-.62c-440.6-25.79-510.42-164.14-510.42-164.14s-1.39-27.73-2.09-103.86c-.71-77-.73-203.46,2.09-400.82,4.25-297.69,388.8-339,574.37-341.55a75.23,75.23,0,0,0,33.42,40.68v6.62A29.21,29.21,0,0,0,717,153.18c-13.22,4.91-21.32,11.53-21.32,18.84,0,15.13,34.81,27.4,77.76,27.4S851.2,187.15,851.2,172c0-7.18-7.82-13.7-20.64-18.59a26.55,26.55,0,0,0,1.2-7.92V134.57a75.33,75.33,0,0,0,30.69-39C1047,97.73,1435.28,138,1439.56,437.11,1442.38,634.47,1442.36,760.94,1441.65,837.93Z"/><path class="cls-3" d="M851.2,172c0,15.13-34.82,27.4-77.77,27.4s-77.76-12.27-77.76-27.4c0-7.31,8.1-13.93,21.32-18.84a29.21,29.21,0,0,1-1.88-10.32v-6.62a93,93,0,0,0,28.45,10.48,139.42,139.42,0,0,0,28.5,2.59,138.71,138.71,0,0,0,29.6-2.82,90.33,90.33,0,0,0,30.1-11.92v10.94a26.55,26.55,0,0,1-1.2,7.92C843.38,158.32,851.2,164.84,851.2,172Z"/><path class="cls-4" d="M1542.37,940c0,97.58-252.83,179.34-592.43,200.73l-10.94.67c-53.32,3.14-108.72,4.79-165.56,4.79-56.13,0-110.85-1.61-163.55-4.68-3.66-.21-7.3-.42-10.94-.65C258.33,1119.69,4.5,1037.8,4.5,940c0-37.15,36.63-72,100.73-102.09.7,76.13,2.09,103.86,2.09,103.86s69.82,138.35,510.42,164.14q5.5.33,11.1.62c44.22,2.37,92.12,3.61,144,3.49h1.27c52.63.13,101.19-1.16,146-3.6q5.6-.3,11.1-.63c438.8-26.1,508.41-164,508.41-164s1.38-27.73,2.09-103.86C1505.75,868,1542.37,902.88,1542.37,940Z"/><path d="M1050.81,1357.65c0-.05-2.48-6-6.8-16.05l-.3-.71-.51-.58c-29.17-33.85-139.68-57.5-268.73-57.5-16.5,0-32.7.39-48.46,1.14a4.68,4.68,0,0,0-4.41,5v.1a5.25,5.25,0,0,0,5.52,4.86c15.44-.73,31.27-1.12,47.34-1.12,123.6,0,232.86,22.45,260.66,53.46,3.11,7.27,5.2,12.23,6,14.23-1.06,15.93-29.23,32.68-75.83,45-50.91,13.45-118.69,20.85-190.86,20.85s-139.93-7.4-190.85-20.85c-46.6-12.31-74.77-29.06-75.83-45,.83-2,2.92-7,6-14.23,18.07-20.16,70.57-36.69,139-45.8a6,6,0,0,0,5.21-6.49v0a4.41,4.41,0,0,0-5-4c-72.05,9.63-128.12,28-147.36,50.37l-.51.58-.3.71c-4.32,10.09-6.78,16-6.8,16.05l-.38.93v1c0,27.76,45.3,45.55,83.31,55.59,51.72,13.66,120.41,21.18,193.4,21.18s141.69-7.52,193.42-21.18c38-10,83.3-27.83,83.3-55.59v-1Z"/><path d="M653,1300.11c-69.17,9.19-122.05,26-139.66,46.38a5,5,0,0,1-7.3.3,4.94,4.94,0,0,1-1.36-4.53,4.42,4.42,0,0,1,.33-1.11c14.64-34.21,52.84-121.52,94-200.27,3.64.23,7.28.44,10.94.65l-1,2c-35.29,67.39-68.58,141.53-86.74,183.2,25.31-15.52,69-28,123.2-35.65l3.22-.45,4.85-.65h.35a4.07,4.07,0,0,1,4.29,3.75v.15A5.87,5.87,0,0,1,653,1300.11Z"/><path d="M1042.77,1346.94a5,5,0,0,1-7.14-.45c-27-31.3-136.81-54-261.16-54-15.94,0-31.64.38-47,1.09a5.69,5.69,0,0,1-5.91-5h0c0-.11,0-.23,0-.34a.38.38,0,0,0,0-.1,4.22,4.22,0,0,1,4-4.53c15.9-.76,32.24-1.16,48.89-1.16,111.39,0,209,17.61,252.35,44.21-18.16-41.68-51.45-115.82-86.74-183.2l-1.08-2.06,10.94-.67c41.12,78.74,79.32,166.07,94,200.34a4.8,4.8,0,0,1,.34,1.14v0A5,5,0,0,1,1042.77,1346.94Z"/><line class="cls-4" x1="339.38" y1="764.31" x2="339.38" y2="926.37"/><path class="cls-4" d="M581.32,199.42S346.62,215.89,339.38,435.3v243"/></g></g></svg>