<svg xmlns="http://www.w3.org/2000/svg" viewBox="0 0 158.12 266.92"><defs><style>.cls-1{fill:none;stroke:#000;stroke-linecap:round;stroke-linejoin:round;stroke-width:3px;}</style></defs><title>ваза.квадрат</title><g id="Шар_2" data-name="Шар 2"><g id="Шар_1-2" data-name="Шар 1"><polygon class="cls-1" points="1.5 1.5 35.88 16.67 156.63 16.67 109.7 1.5 1.5 1.5"/><polyline class="cls-1" points="35.88 16.67 56.1 265.42 29.65 249.64 1.5 1.5"/><polyline class="cls-1" points="156.63 16.67 120.82 258.34 56.1 265.42"/><path class="cls-1" d="M55.18,56.82c-4,9.07-9,18.07-14,27.07,2,11,1,21,2.7,31.83,5.5-11.16-.36-4.44,0,0,10.3-21.83,21.3-42.83,32.3-64.83,6-11,10-23,16.46-34.22"/><path class="cls-1" d="M75.39,16.67l-4.94,9.81"/><path class="cls-1" d="M69.72,155.68c-5.49,13.21-10.49,25.21-16.49,37.21-1,2-1,5-2.46,6.87"/><path class="cls-1" d="M129.49,16.67c-13.26,33.22-28.26,65.22-42.05,97.8"/></g></g></svg>