<svg xmlns="http://www.w3.org/2000/svg" viewBox="0 0 1163.68 2559.63"><defs><style>.cls-1,.cls-2,.cls-3{fill:none;stroke:#000;stroke-miterlimit:10;}.cls-1,.cls-3{stroke-width:13px;}.cls-2{stroke-width:3px;}.cls-3{stroke-linecap:round;}</style></defs><title>ваза підлогова</title><g id="Шар_2" data-name="Шар 2"><g id="Шар_2-2" data-name="Шар 2"><path class="cls-1" d="M1000.47,77.24a23.31,23.31,0,0,1-5.66,15.27c-4.08,5-13,10-26.18,14.78h0c-60.24,22-209,40.67-386.78,40.68S255.3,129.33,195.06,107.29h0c-13.17-4.82-22.1-9.8-26.18-14.78a23.43,23.43,0,0,1,0-30.54c24.18-29,196.32-55.46,413-55.47S970.63,33,994.81,62A23.35,23.35,0,0,1,1000.47,77.24Z"/><path class="cls-1" d="M818.9,2077.86s7,138.26,58.16,197.73c37.14,43.13,60.83,66.3,72,99.08a128.57,128.57,0,0,1,5.25,21.38,62.93,62.93,0,0,1-7.2,41.15c-28.79,50.54-122.15,91.32-243.76,107.9-64.84,5.56-121.48,8-121.48,8s-56.64-2.46-121.48-8C334.53,2528,239,2484.88,213.84,2431.91a58.69,58.69,0,0,1-4.8-33.5,131.25,131.25,0,0,1,5.61-23.74c11.14-32.78,34.83-56,72-99.08,51.21-59.47,55.78-197.73,55.78-197.73-3.56-112.41-21.09-190.49-181.33-621.66S4.13,845,7.44,721.07,75.17,478.23,195.05,370.85a443.45,443.45,0,0,0,39.76-40.06A149,149,0,0,0,271,229.37c-.22-8.2,1.15-17.9-.85-28.68-8.26-44.6-75.05-93.4-75.05-93.4h0c60.24,22,209,40.67,386.78,40.68s326.54-18.64,386.78-40.68h0s-66.79,48.8-75,93.4c-2,10.78-.63,20.48-.85,28.68a149,149,0,0,0,36.14,101.42,443.45,443.45,0,0,0,39.76,40.06c119.88,107.38,184.31,226.32,187.61,350.22s6.61,304-153.63,735.13S822.46,1965.45,818.9,2077.86Z"/><path class="cls-2" d="M460.36,2545.1c64.84,5.56,121.48,8,121.48,8A901.94,901.94,0,0,1,460.36,2545.1Z"/><path class="cls-2" d="M581.84,2553.12s56.64-2.46,121.48-8A901.94,901.94,0,0,1,581.84,2553.12Z"/><path class="cls-3" d="M478.26,2316.71c-17.83-3-35.68-6.62-52.89-12.58a137.07,137.07,0,0,1-12.91-5.14"/><path class="cls-3" d="M764.88,2292.5c-20.45,8.47-40.3,13.8-60.94,19-4.06.48-7.33,1.05-11.39,1.53-28.09,7.24-54.8,9.81-83.89,12.09-26.6,1.62-51.28.56-76.89-1.95"/><path class="cls-3" d="M371.55,77.23s222.68,25,434.24,0"/><path class="cls-3" d="M805.79,217.73s-51.46,153.1,63.36,246.66,93.56,306.19,93.56,306.19"/><path class="cls-3" d="M950.87,888.24c-8.73,38.06-16.73,76.06-25.19,114.56"/></g></g></svg>